<svg width="20" height="20" viewBox="0 0 20 20" fill="none" xmlns="http://www.w3.org/2000/svg">
<path d="M1.66846 10.0017C1.66893 11.9861 2.37718 13.9053 3.66593 15.4143C4.95467 16.9233 6.73938 17.9232 8.69929 18.2342V12.41H6.58512V10.0017H8.70179V8.16836C8.65505 7.73927 8.70337 7.30515 8.84331 6.89683C8.98325 6.48852 9.21137 6.11602 9.51149 5.8058C9.81161 5.49558 10.1763 5.25525 10.5798 5.10188C10.9833 4.9485 11.4156 4.88585 11.846 4.91836C12.471 4.92836 13.096 4.98419 13.7126 5.08503V7.13419H12.6593C12.4803 7.11075 12.2983 7.12783 12.1267 7.18418C11.9552 7.24053 11.7985 7.3347 11.6683 7.45975C11.538 7.58479 11.4375 7.73751 11.3743 7.90661C11.311 8.0757 11.2865 8.25686 11.3026 8.43669V10.0017H13.6118L13.2426 12.4109H11.3026V18.2342C12.8756 17.9856 14.3445 17.2915 15.5353 16.234C16.726 15.1765 17.5889 13.8 18.0216 12.2674C18.4543 10.7348 18.4388 9.11023 17.9769 7.58614C17.5151 6.06205 16.6262 4.70222 15.4154 3.66765C14.2047 2.63307 12.7229 1.96708 11.1454 1.74853C9.56796 1.52998 7.96089 1.76801 6.5145 2.43445C5.06811 3.10088 3.84297 4.16782 2.98413 5.50893C2.12529 6.85003 1.66871 8.40915 1.66846 10.0017Z" fill="#545454"/>
</svg>
