<svg width="20" height="20" viewBox="0 0 20 20" fill="none" xmlns="http://www.w3.org/2000/svg">
<path d="M10.0001 5.99411C7.7833 5.99411 5.99423 7.78317 5.99423 9.99997C5.99423 12.2168 7.7833 14.0058 10.0001 14.0058C12.2169 14.0058 14.006 12.2168 14.006 9.99997C14.006 7.78317 12.2169 5.99411 10.0001 5.99411ZM10.0001 12.6035C8.5665 12.6035 7.39658 11.4336 7.39658 9.99997C7.39658 8.56638 8.5665 7.39645 10.0001 7.39645C11.4337 7.39645 12.6036 8.56638 12.6036 9.99997C12.6036 11.4336 11.4337 12.6035 10.0001 12.6035ZM14.17 4.89645C13.6524 4.89645 13.2345 5.31442 13.2345 5.832C13.2345 6.34958 13.6524 6.76755 14.17 6.76755C14.6876 6.76755 15.1056 6.35153 15.1056 5.832C15.1057 5.7091 15.0816 5.58738 15.0347 5.4738C14.9877 5.36023 14.9188 5.25703 14.8319 5.17013C14.745 5.08322 14.6418 5.01432 14.5282 4.96735C14.4146 4.92039 14.2929 4.8963 14.17 4.89645ZM17.8087 9.99997C17.8087 8.92184 17.8185 7.85349 17.7579 6.77731C17.6974 5.52731 17.4122 4.41794 16.4981 3.50388C15.5821 2.58786 14.4747 2.30466 13.2247 2.24411C12.1466 2.18356 11.0782 2.19333 10.002 2.19333C8.92392 2.19333 7.85556 2.18356 6.77939 2.24411C5.52939 2.30466 4.42002 2.58981 3.50595 3.50388C2.58994 4.41989 2.30673 5.52731 2.24619 6.77731C2.18564 7.85544 2.19541 8.9238 2.19541 9.99997C2.19541 11.0761 2.18564 12.1465 2.24619 13.2226C2.30673 14.4726 2.59189 15.582 3.50595 16.4961C4.42197 17.4121 5.52939 17.6953 6.77939 17.7558C7.85752 17.8164 8.92588 17.8066 10.002 17.8066C11.0802 17.8066 12.1485 17.8164 13.2247 17.7558C14.4747 17.6953 15.5841 17.4101 16.4981 16.4961C17.4142 15.58 17.6974 14.4726 17.7579 13.2226C17.8204 12.1465 17.8087 11.0781 17.8087 9.99997ZM16.0899 14.6054C15.9474 14.9609 15.7755 15.2265 15.5001 15.5C15.2247 15.7754 14.961 15.9472 14.6056 16.0898C13.5782 16.498 11.1388 16.4062 10.0001 16.4062C8.86142 16.4062 6.42002 16.498 5.39267 16.0918C5.0372 15.9492 4.77158 15.7773 4.49814 15.5019C4.22275 15.2265 4.05087 14.9629 3.9083 14.6074C3.50205 13.5781 3.59384 11.1386 3.59384 9.99997C3.59384 8.8613 3.50205 6.41989 3.9083 5.39255C4.05087 5.03708 4.22275 4.77145 4.49814 4.49802C4.77353 4.22458 5.0372 4.05075 5.39267 3.90817C6.42002 3.50192 8.86142 3.59372 10.0001 3.59372C11.1388 3.59372 13.5802 3.50192 14.6075 3.90817C14.963 4.05075 15.2286 4.22263 15.5021 4.49802C15.7774 4.77341 15.9493 5.03708 16.0919 5.39255C16.4981 6.41989 16.4063 8.8613 16.4063 9.99997C16.4063 11.1386 16.4981 13.5781 16.0899 14.6054Z" fill="#545454"/>
</svg>
